<?xml version="1.0" encoding="UTF-8"?>
<svg width="700pt" height="700pt" version="1.1" viewBox="0 0 700 700" xmlns="http://www.w3.org/2000/svg">
 <path d="m151.67 128.33c0-12.887 10.445-23.332 23.332-23.332h350c12.887 0 23.332 10.445 23.332 23.332v280c0 12.887-10.445 23.336-23.332 23.336h-350c-12.887 0-23.332-10.449-23.332-23.336zm373.33 0h-350v210l66.57-49.926c9.293-6.9688 22.289-6.043 30.5 2.168l32.129 32.125 101.22-80.98c8.5234-6.8164 20.633-6.8164 29.156 0l90.422 72.34zm-350 280v-40.832l80.57-60.43 32.129 32.129c8.4062 8.4062 21.793 9.1484 31.074 1.7227l101.23-80.98 105 84v64.391zm70-210c0-12.887 10.445-23.332 23.332-23.332s23.336 10.445 23.336 23.332-10.449 23.336-23.336 23.336-23.332-10.449-23.332-23.336zm23.332-46.664c-25.773 0-46.664 20.891-46.664 46.664 0 25.773 20.891 46.668 46.664 46.668 25.773 0 46.668-20.895 46.668-46.668 0-25.773-20.895-46.664-46.668-46.664z" fill-rule="evenodd"/>
</svg>
